<?xml version="1.0" encoding="utf-8"?>
<!-- Generator: Adobe Illustrator 25.0.0, SVG Export Plug-In . SVG Version: 6.00 Build 0)  -->
<svg version="1.1" id="Livello_1" xmlns="http://www.w3.org/2000/svg" xmlns:xlink="http://www.w3.org/1999/xlink" x="0px" y="0px"
	 viewBox="0 0 300 300" style="enable-background:new 0 0 300 300;" xml:space="preserve">
<style type="text/css">
	.st0{fill:none;}
	.st1{fill:#34CC98;}
</style>
<path class="st0" d="M116.22,163.17"/>
<path class="st1" d="M216.32,163.17h-94.29c-2.82,0-5.1,2.28-5.1,5.1v35.44c0,4.3-4.98,6.65-8.33,3.95
	c-85.17-68.34,27.54-185.46,98.35-100.14c2.77,3.34,0.44,8.39-3.9,8.39h-75.81c-0.34,0-0.67,0.02-1,0.04
	c-6.45,0.46-5.96,10.18,0.51,10.18h87.46c2.23,0,4.23,1.44,4.87,3.58c2.82,9.32,3.46,19.01,2.31,28.98
	C221.1,161.26,218.9,163.17,216.32,163.17z"/>
</svg>
